<?xml version="1.0" encoding="utf-8"?>
<!-- Generator: Adobe Illustrator 25.2.3, SVG Export Plug-In . SVG Version: 6.00 Build 0)  -->
<svg version="1.1" id="Capa_1" xmlns="http://www.w3.org/2000/svg" xmlns:xlink="http://www.w3.org/1999/xlink" x="0px" y="0px"
	 viewBox="0 0 16 16" style="enable-background:new 0 0 16 16;" xml:space="preserve">
<style type="text/css">
	.st0{fill-rule:evenodd;clip-rule:evenodd;fill:#FFFFFF;}
	.st1{fill-rule:evenodd;clip-rule:evenodd;}
</style>
<path class="st0" d="M7.6,5.6c0.2-0.2,0.5-0.2,0.7,0c0,0,0,0,0,0l6,6c0.2,0.2,0.2,0.5,0,0.7s-0.5,0.2-0.7,0L8,6.7l-5.6,5.6
	c-0.2,0.2-0.5,0.2-0.7,0s-0.2-0.5,0-0.7L7.6,5.6z"/>
<path class="st1" d="M7.6,8.6c0.2-0.2,0.5-0.2,0.7,0c0,0,0,0,0,0l6,6c0.2,0.2,0.2,0.5,0,0.7s-0.5,0.2-0.7,0L8,9.7l-5.6,5.6
	c-0.2,0.2-0.5,0.2-0.7,0s-0.2-0.5,0-0.7l0,0L7.6,8.6z"/>
<g>
	<path class="st1" d="M7.5,0.5c0.2-0.2,0.5-0.2,0.7,0c0,0,0,0,0,0l6,6c0.2,0.2,0.2,0.5,0,0.7s-0.5,0.2-0.7,0L7.9,1.6L2.2,7.2
		C2,7.4,1.7,7.4,1.5,7.2s-0.2-0.5,0-0.7l0,0L7.5,0.5z"/>
</g>
</svg>
